<svg xmlns="http://www.w3.org/2000/svg" version="1.1" xmlns:xlink="http://www.w3.org/1999/xlink" width="512" height="512" x="0" y="0" viewBox="0 0 512 512" style="enable-background:new 0 0 512 512" xml:space="preserve" class=""><g><path fill="#47568c" d="m91 270-35.625 30L0 270l61-90 30 30zm0 0" opacity="1" data-original="#47568c" class=""></path><path fill="#2c3b73" d="m421 270 35.625 30L512 270l-61-90-30 30zm0 0" opacity="1" data-original="#2c3b73" class=""></path><path fill="#ffda2d" d="M391 0v165H121V30h126.898L256 18l12-18zm0 0" opacity="1" data-original="#ffda2d" class=""></path><path fill="#fdbf00" d="M391 0v165H256V18l12-18zm0 0" opacity="1" data-original="#fdbf00" class=""></path><path fill="#fdbf00" d="M421 60v165H91V90h186.898L298 60zm0 0" opacity="1" data-original="#fdbf00" class=""></path><path fill="#ff9100" d="M421 60v165H256V90h21.898L298 60zm0 0" opacity="1" data-original="#ff9100" class=""></path><path fill="#ffda2d" d="M451 120v225H61V150h246.898L328 120zm0 0" opacity="1" data-original="#ffda2d" class=""></path><path fill="#fdbf00" d="M451 120v225H256V150h51.898L328 120zm0 0" opacity="1" data-original="#fdbf00" class=""></path><path fill="#61729b" d="M512 270v242H0V270h196.902l9.899 30h98.398l9.899-30zm0 0" opacity="1" data-original="#61729b" class=""></path><path fill="#47568c" d="M512 270v242H256V300h49.2l9.898-30zm0 0" opacity="1" data-original="#47568c" class=""></path><path fill="#ffda2d" d="M181 360h150v30H181zm0 0" opacity="1" data-original="#ffda2d" class=""></path><path fill="#fdbf00" d="M256 360h75v30h-75zm0 0" opacity="1" data-original="#fdbf00" class=""></path></g></svg>
