<svg xmlns="http://www.w3.org/2000/svg" version="1.1" xmlns:xlink="http://www.w3.org/1999/xlink" width=“100” height=“100” x="0" y="0" viewBox="0 0 68 68" style="enable-background:new 0 0 512 512" xml:space="preserve" class=""><g><path fill="#78e75a" d="M24.874 28.977v-.504l-8.73-5.446a2.036 2.036 0 0 0-2.805.65l-3.306 5.3h14.841z" opacity="1" data-original="#78e75a"></path><path fill="#57b3fe" d="M37.487 30.631H14.339l9.992-9.992a2.237 2.237 0 0 1 3.164 0z" opacity="1" data-original="#57b3fe"></path><path fill="#f45170" d="M48.442 31.254H24.57l11.16-11.16a2.499 2.499 0 0 1 3.533 0z" opacity="1" data-original="#f45170"></path><path fill="#c9cee2" d="M44.734 66H12.908a3.11 3.11 0 0 1-3.104-2.923L7.775 29.195a2.466 2.466 0 0 1 2.461-2.613h37.17a2.466 2.466 0 0 1 2.461 2.613l-2.03 33.882A3.11 3.11 0 0 1 44.735 66z" opacity="1" data-original="#c9cee2" class=""></path><path fill="#9ea9c9" d="M19.224 60.902a1.6 1.6 0 0 1-1.593-1.47l-2.164-26.355a1.6 1.6 0 0 1 1.464-1.725 1.608 1.608 0 0 1 1.725 1.463l2.165 26.356a1.6 1.6 0 0 1-1.597 1.73zM28.821 60.902a1.6 1.6 0 0 1-1.6-1.6V32.946a1.6 1.6 0 1 1 3.2 0v26.356a1.6 1.6 0 0 1-1.6 1.6zM38.418 60.902a1.6 1.6 0 0 1-1.597-1.731l2.165-26.356a1.6 1.6 0 0 1 3.19.262L40.01 59.433a1.6 1.6 0 0 1-1.593 1.469z" opacity="1" data-original="#9ea9c9"></path><path fill="#ffb961" d="m14.694 16.415 6.15 2.884a.337.337 0 0 0 .466-.207l2.042-6.685a.337.337 0 0 0-.484-.395l-1.43.776a.334.334 0 0 1-.451-.126c-.947-1.642-6.145-9.583-14.99-3.29-.313.223-.088.71.281.605 2.72-.779 7.533-1.136 10.385 4.602a.345.345 0 0 1-.173.466l-1.784.754a.337.337 0 0 0-.012.616z" opacity="1" data-original="#ffb961"></path><path fill="#4c5c75" d="M58.464 30.251 24.538 6.246a2.338 2.338 0 1 1 2.7-3.816l33.926 24.005a2.338 2.338 0 1 1-2.7 3.816z" opacity="1" data-original="#4c5c75"></path><path fill="#c9cee2" d="M50.24 18.705 38.163 10.16l.794-1.122a2.677 2.677 0 0 1 3.732-.64l7.708 5.454a2.677 2.677 0 0 1 .639 3.732z" opacity="1" data-original="#c9cee2" class=""></path><path fill="#ffffff" d="M45.371 33.204a.1.1 0 0 1-.099-.094 1.854 1.854 0 0 0-1.757-1.757.1.1 0 0 1 0-.199 1.855 1.855 0 0 0 1.757-1.757.1.1 0 0 1 .199 0c.047.949.808 1.71 1.757 1.757a.1.1 0 0 1 0 .199 1.855 1.855 0 0 0-1.757 1.757.1.1 0 0 1-.1.094z" opacity="1" data-original="#ffffff"></path></g></svg>
