<svg xmlns="http://www.w3.org/2000/svg" version="1.1" xmlns:xlink="http://www.w3.org/1999/xlink" width="100" height="100" x="0" y="0" viewBox="0 0 512 512" style="enable-background:new 0 0 512 512" xml:space="preserve" class=""><g><path fill="#453d81" d="M319 372v96c0 8.28-6.72 15-15 15h-96c-8.28 0-15-6.72-15-15v-96c0-8.28 6.72-15 15-15h96c8.28 0 15 6.72 15 15z" opacity="1" data-original="#453d81" class=""></path><path fill="#2e2654" d="M319 372v96c0 8.28-6.72 15-15 15h-48V357h48c8.28 0 15 6.72 15 15z" opacity="1" data-original="#2e2654"></path><path fill="#6b66d0" d="M467 29H45C20.19 29 0 49.19 0 74v268c0 24.81 20.19 45 45 45h422c24.81 0 45-20.19 45-45V74c0-24.81-20.19-45-45-45z" opacity="1" data-original="#6b66d0" class=""></path><path fill="#453d81" d="M512 74v268c0 24.81-20.19 45-45 45H256V29h211c24.81 0 45 20.19 45 45z" opacity="1" data-original="#453d81" class=""></path><path fill="#f9f9f9" d="M482 74v268c0 8.27-6.73 15-15 15H45c-8.27 0-15-6.73-15-15V74c0-8.27 6.73-15 15-15h422c8.27 0 15 6.73 15 15z" opacity="1" data-original="#f9f9f9" class=""></path><path fill="#e2dff4" d="M482 74v268c0 8.27-6.73 15-15 15H256V59h211c8.27 0 15 6.73 15 15z" opacity="1" data-original="#e2dff4" class=""></path><path fill="#6b66d0" d="M431 468c0 8.28-6.72 15-15 15H96c-8.28 0-15-6.72-15-15s6.72-15 15-15h320c8.28 0 15 6.72 15 15z" opacity="1" data-original="#6b66d0" class=""></path><path fill="#453d81" d="M431 468c0 8.28-6.72 15-15 15H256v-30h160c8.28 0 15 6.72 15 15z" opacity="1" data-original="#453d81" class=""></path><path fill="#ff2929" d="M69.39 126.6c-5.614-5.614-6.087-14.948 0-21.21C79.194 95.872 95 102.919 95 116c0 13.284-16.19 20.033-25.61 10.6z" opacity="1" data-original="#ff2929"></path><path fill="#e2dff4" d="M224 131h-80c-8.284 0-15-6.716-15-15s6.716-15 15-15h80c8.284 0 15 6.716 15 15s-6.716 15-15 15z" opacity="1" data-original="#e2dff4" class=""></path><path fill="#525cdd" d="M80 195c-8.201 0-15-6.656-15-15 0-8.948 7.784-15.812 16.48-14.92 8.05.672 14.296 8.127 13.44 16.39C94.32 188.821 87.829 195 80 195z" opacity="1" data-original="#525cdd"></path><path fill="#e2dff4" d="M224 195h-80c-8.284 0-15-6.716-15-15s6.716-15 15-15h80c8.284 0 15 6.716 15 15s-6.716 15-15 15z" opacity="1" data-original="#e2dff4" class=""></path><path fill="#6b66d0" d="M69.39 254.6c-8.902-8.871-3.532-24.191 9.13-25.53 13.52-1.24 21.383 14.267 13.08 24.44-5.497 6.744-15.86 7.449-22.21 1.09z" opacity="1" data-original="#6b66d0" class=""></path><path fill="#e2dff4" d="M224 259h-80c-8.284 0-15-6.716-15-15s6.716-15 15-15h80c8.284 0 15 6.716 15 15s-6.716 15-15 15z" opacity="1" data-original="#e2dff4" class=""></path><circle cx="360" cy="180" r="87" fill="#ffb454" opacity="1" data-original="#ffb454"></circle><path fill="#00cb75" d="M447 180h-87V93c47.97 0 87 39.03 87 87z" opacity="1" data-original="#00cb75" class=""></path><path fill="#ffe278" d="M168 323h-24c-8.284 0-15-6.716-15-15s6.716-15 15-15h24c8.284 0 15 6.716 15 15s-6.716 15-15 15z" opacity="1" data-original="#ffe278"></path><path fill="#00cb75" d="M312 323h-24c-8.284 0-15-6.716-15-15s6.716-15 15-15h24c8.284 0 15 6.716 15 15s-6.716 15-15 15z" opacity="1" data-original="#00cb75" class=""></path></g></svg>
