<svg xmlns="http://www.w3.org/2000/svg" version="1.1" xmlns:xlink="http://www.w3.org/1999/xlink" width="512" height="512" x="0" y="0" viewBox="0 0 512 512" style="enable-background:new 0 0 512 512" xml:space="preserve" class=""><g><path d="M512 141.241v229.518L256 512V282.483z" style="" fill="#f5c947" data-original="#f5c947" class=""></path><path d="M512 141.241 256 282.483l-88.276-48.729-.176-.088.176-.353L423.283 92.337z" style="" fill="#e6b930" data-original="#e6b930" class=""></path><path d="m344.276 48.728 79.007 43.609-255.559 140.976-.176.353-79.272-43.696z" style="" fill="#e09032" data-original="#e09032" class=""></path><path d="m256 0 88.276 48.728-256 141.242L0 141.241z" style="" fill="#e6b930" data-original="#e6b930" class=""></path><path d="M256 282.483V512L0 370.759V141.241l88.276 48.729v118.819l79.448 44.138V233.754z" style="" fill="#ffd24a" data-original="#ffd24a"></path><path d="M167.724 233.754v119.173l-79.448-44.138V189.97l79.272 43.696z" style="" fill="#d1862f" data-original="#d1862f"></path></g></svg>
