<svg xmlns="http://www.w3.org/2000/svg" version="1.1" xmlns:xlink="http://www.w3.org/1999/xlink" width="512" height="512" x="0" y="0" viewBox="0 0 510 510" style="enable-background:new 0 0 512 512" xml:space="preserve" fill-rule="evenodd" class=""><g><path fill="#9bc9ff" d="M328.627 211.074H183.44c-3.459 0-6.285-2.826-6.285-6.285V54.535c0-.923.186-1.789.549-2.582h35.163a3.16 3.16 0 0 0 3.167-3.167V13.61c-.197.084-.386.18-.569.289.942-.56 2.003-.825 3.151-.825h110.011c3.459 0 6.285 2.825 6.285 6.285v185.43c0 3.459-2.826 6.285-6.285 6.285zM215.431 13.92c-.438.265-.843.6-1.248 1.005a6.099 6.099 0 0 1 1.248-1.005zM56.21 296.536v35.176a3.16 3.16 0 0 1-3.167 3.167H17.867a5.366 5.366 0 0 1 1.316-1.851l35.176-35.177c.584-.584 1.169-1.023 1.851-1.315zm317.581 2.926v35.176a3.16 3.16 0 0 1-3.167 3.167h-35.176a5.386 5.386 0 0 1 1.315-1.851l35.177-35.176c.584-.585 1.169-1.023 1.851-1.316z" opacity="1" data-original="#9bc9ff" class=""></path><path fill="#6699ff" d="M263 247.199h150.23a8 8 0 0 1 8 8v22.99c0 4.416-3.584 8-8 8-4.415 0-8-3.584-8-8v-14.99H104.77v14.99c0 4.416-3.585 8-8 8-4.416 0-8-3.584-8-8v-22.99a8 8 0 0 1 8-8H247v-14.563c0-4.415 3.585-8 8-8s8 3.585 8 8zm63.521-240.23c7.828 0 14.223 6.395 14.223 14.223v182.69c0 7.828-6.395 14.223-14.223 14.223H183.479c-7.828 0-14.223-6.395-14.223-14.223V55.848c0-3.861 1.418-7.288 4.176-10.047l34.61-34.61c2.784-2.862 6.21-4.222 10.094-4.222zM207.56 34.39l-10.883 10.883h10.883zm-22.241 26.946v140.706h139.362V23.031H223.623v27.153a11.129 11.129 0 0 1-11.151 11.152zm113.217-16.975a8.036 8.036 0 0 1 8.032 8.031 8.036 8.036 0 0 1-8.032 8.032h-54.72a8.036 8.036 0 0 1-8.032-8.032 8.036 8.036 0 0 1 8.032-8.031zm0 80.16c4.433 0 8.032 3.599 8.032 8.032s-3.599 8.031-8.032 8.031h-87.072c-4.433 0-8.032-3.598-8.032-8.031s3.599-8.032 8.032-8.032zm0-40.08a8.036 8.036 0 0 1 8.032 8.032 8.036 8.036 0 0 1-8.032 8.031h-87.072a8.036 8.036 0 0 1-8.032-8.031 8.036 8.036 0 0 1 8.032-8.032zm0 80.161a8.036 8.036 0 0 1 8.032 8.031 8.036 8.036 0 0 1-8.032 8.032h-87.072a8.036 8.036 0 0 1-8.032-8.032 8.036 8.036 0 0 1 8.032-8.031zM168.29 291.895c7.829 0 14.224 6.395 14.224 14.223v182.69c0 7.828-6.395 14.223-14.224 14.223H25.249c-7.829 0-14.224-6.395-14.224-14.223V340.775c0-3.862 1.418-7.289 4.177-10.047l34.61-34.61c2.783-2.862 6.21-4.223 10.093-4.223zM49.33 319.316l-10.883 10.883H49.33zm-22.242 26.946v140.707h139.363V307.958H65.393v27.153a11.13 11.13 0 0 1-11.152 11.151zm113.218-16.975a8.035 8.035 0 0 1 8.031 8.032 8.035 8.035 0 0 1-8.031 8.031H85.585a8.035 8.035 0 0 1-8.031-8.031 8.036 8.036 0 0 1 8.031-8.032zm0 80.161a8.035 8.035 0 0 1 8.031 8.031 8.035 8.035 0 0 1-8.031 8.032H53.233a8.035 8.035 0 0 1-8.031-8.032 8.035 8.035 0 0 1 8.031-8.031zm0-40.08c4.433 0 8.031 3.598 8.031 8.031s-3.598 8.032-8.031 8.032H53.233c-4.433 0-8.031-3.599-8.031-8.032s3.598-8.031 8.031-8.031zm0 80.16a8.035 8.035 0 0 1 8.031 8.032 8.035 8.035 0 0 1-8.031 8.031H53.233a8.035 8.035 0 0 1-8.031-8.031 8.035 8.035 0 0 1 8.031-8.032zm344.445-157.633c7.829 0 14.224 6.395 14.224 14.223v182.69c0 7.828-6.395 14.223-14.224 14.223H341.71c-7.829 0-14.224-6.395-14.224-14.223V340.775c0-3.862 1.418-7.289 4.177-10.047l34.61-34.61c2.783-2.862 6.21-4.223 10.093-4.223zm-118.96 27.421-10.883 10.883h10.883zm-22.242 26.946v140.707h139.363V307.958H381.854v27.153a11.13 11.13 0 0 1-11.152 11.151zm113.218 63.186a8.035 8.035 0 0 1 8.031 8.031 8.035 8.035 0 0 1-8.031 8.032h-87.073a8.035 8.035 0 0 1-8.031-8.032 8.035 8.035 0 0 1 8.031-8.031zm0-40.08c4.433 0 8.031 3.598 8.031 8.031s-3.598 8.032-8.031 8.032h-87.073c-4.433 0-8.031-3.599-8.031-8.032s3.598-8.031 8.031-8.031zm0-40.081a8.035 8.035 0 0 1 8.031 8.032 8.035 8.035 0 0 1-8.031 8.031h-54.721a8.035 8.035 0 0 1-8.031-8.031 8.036 8.036 0 0 1 8.031-8.032zm0 120.241a8.035 8.035 0 0 1 8.031 8.032 8.035 8.035 0 0 1-8.031 8.031h-87.073a8.035 8.035 0 0 1-8.031-8.031 8.035 8.035 0 0 1 8.031-8.032z" opacity="1" data-original="#6699ff" class=""></path></g></svg>
