<svg xmlns="http://www.w3.org/2000/svg" version="1.1" xmlns:xlink="http://www.w3.org/1999/xlink" width="512" height="512" x="0" y="0" viewBox="0 0 68 68" style="enable-background:new 0 0 512 512" xml:space="preserve" class=""><g><path fill="#33527d" d="M65.998 13.65v2.9h-64v-2.9c0-6.412 5.193-11.605 11.604-11.605h40.79c6.412 0 11.606 5.193 11.606 11.604z" opacity="1" data-original="#33527d" class=""></path><path fill="#e5e8ef" d="M66.002 16.555v34.37c0 6.42-5.2 11.61-11.61 11.61h-40.79c-6.41 0-11.6-5.19-11.6-11.61v-34.37z" opacity="1" data-original="#e5e8ef" class=""></path><path fill="#cdd4df" d="M65.998 50.928v3.423c0 6.411-5.194 11.604-11.605 11.604h-40.79c-6.412 0-11.605-5.193-11.605-11.604v-3.423c0 6.412 5.193 11.605 11.604 11.605h40.79c6.412 0 11.606-5.193 11.606-11.605z" opacity="1" data-original="#cdd4df"></path><path fill="#4cc66e" d="M13.676 9.298c0 1.227-.972 2.224-2.199 2.224s-2.224-.997-2.224-2.224.997-2.225 2.224-2.225 2.2.997 2.2 2.225z" opacity="1" data-original="#4cc66e"></path><path fill="#ffa300" d="M20.591 9.298c0 1.227-.997 2.224-2.199 2.224-1.227 0-2.224-.997-2.224-2.224s.997-2.225 2.224-2.225c1.202 0 2.2.997 2.2 2.225z" opacity="1" data-original="#ffa300"></path><path fill="#b244f1" d="M27.506 9.298c0 1.227-.997 2.224-2.198 2.224-1.228 0-2.225-.997-2.225-2.224s.997-2.225 2.225-2.225c1.2 0 2.198.997 2.198 2.225z" opacity="1" data-original="#b244f1"></path><g fill="#079cff"><path d="M20.514 43.576c-.85-.332-1.976-.668-3.353-1-1.044-.238-1.878-.468-2.48-.68-.578-.203-1.063-.49-1.44-.852-.357-.342-.531-.778-.531-1.333 0-.846.38-1.488 1.162-1.961.812-.492 1.89-.742 3.205-.742 1.404 0 2.784.231 4.09.683.206.082.374.123.513.123.39 0 .712-.145.954-.43.23-.273.348-.584.348-.923 0-.631-.312-1.076-.899-1.286-1.565-.58-3.337-.874-5.266-.874-1.453 0-2.72.249-3.765.74-1.054.496-1.865 1.176-2.409 2.019a5.141 5.141 0 0 0-.822 2.832c0 1.19.338 2.16 1.006 2.882a6.223 6.223 0 0 0 2.333 1.588c.871.34 2.027.697 3.435 1.062 1.046.275 1.862.514 2.425.71a4 4 0 0 1 1.355.767c.335.298.498.66.498 1.105 0 1.837-1.403 2.73-4.29 2.73-1.775 0-3.463-.352-5.017-1.044a1.463 1.463 0 0 0-.6-.126c-.387 0-.71.137-.96.409a1.355 1.355 0 0 0-.367.944c0 .278.086.543.254.786.166.239.38.414.633.52 1.948.842 4.065 1.27 6.291 1.27 1.347 0 2.554-.227 3.588-.672 1.044-.45 1.868-1.088 2.45-1.895a4.642 4.642 0 0 0 .88-2.766c0-1.237-.322-2.24-.96-2.979a5.716 5.716 0 0 0-2.26-1.607zM40.054 35.533c-1.396-.817-3.046-1.232-4.904-1.232s-3.512.414-4.916 1.231a8.492 8.492 0 0 0-3.272 3.406c-.761 1.434-1.165 3.101-1.2 4.965.035 1.853.439 3.52 1.2 4.953a8.484 8.484 0 0 0 3.272 3.407c1.403.817 3.057 1.231 4.916 1.231.55 0 1.038-.028 1.454-.085l2.739 3.266c.276.34.624.512 1.034.512.382 0 .716-.14.991-.415.28-.28.41-.609.388-.965 0-.364-.13-.68-.38-.93l-2.044-2.253a8.494 8.494 0 0 0 3.699-3.27c.965-1.551 1.473-3.386 1.508-5.461-.035-1.836-.444-3.499-1.214-4.942a8.587 8.587 0 0 0-3.27-3.418zm-4.904 1.5c1.332 0 2.502.303 3.479.898a5.928 5.928 0 0 1 2.243 2.442c.517 1.036.778 2.221.778 3.525 0 1.303-.261 2.489-.778 3.524a5.92 5.92 0 0 1-2.243 2.442c-.977.596-2.147.898-3.479.898-1.348 0-2.523-.302-3.49-.898a5.945 5.945 0 0 1-2.23-2.442c-.518-1.033-.78-2.219-.78-3.524s.262-2.491.78-3.524a5.945 5.945 0 0 1 2.23-2.443c.967-.596 2.142-.897 3.49-.897zM60.13 50.773a1.408 1.408 0 0 0-1.03-.428h-8.242V35.888c0-.4-.144-.746-.428-1.03-.568-.569-1.502-.566-2.05.003-.273.284-.41.63-.41 1.027v15.447c0 .52.186.973.556 1.342.37.37.822.557 1.342.557H59.1a1.43 1.43 0 0 0 1.026-.411c.286-.275.431-.618.431-1.02 0-.4-.144-.746-.427-1.03z" fill="#079cff" opacity="1" data-original="#079cff"></path></g><g fill="#cdd4df"><path d="M9.664 23.092a1.191 1.191 0 0 1-1.19 1.19h-2.02a1.19 1.19 0 1 1 0-2.38h2.02c.657 0 1.19.533 1.19 1.19zM22.682 23.092a1.191 1.191 0 0 1-1.189 1.19h-8.27a1.19 1.19 0 1 1 0-2.38h8.27c.657 0 1.19.533 1.19 1.19z" fill="#cdd4df" opacity="1" data-original="#cdd4df"></path></g><path fill="#cdd4df" d="M16.003 28.528a1.191 1.191 0 0 1-1.19 1.189h-8.27a1.19 1.19 0 1 1 0-2.379h8.27c.658 0 1.19.533 1.19 1.19z" opacity="1" data-original="#cdd4df"></path></g></svg>
